# xmcd
#
# Track frame offsets:
#	150
#	15624
#	29351
#	41759
#	59915
#	75344
#	91665
#	111557
#	124435
#	141169
#	154567
#	168066
#	183199
#
# Disc length: 2581 seconds
#
# Revision: 2
# Processed by: cddbd v1.5.2PL0 Copyright (c) Steve Scherf et al.
# Submitted via: EZCDDA 4.3.2
#
DISCID=a50a130d
DTITLE=Nemesea - In Control
DYEAR=1900
DGENRE=
TTITLE0=No More
TTITLE1=In Control
TTITLE2=Home
TTITLE3=The Way I Feel
TTITLE4=Lost Inside
TTITLE5=Remember
TTITLE6=Believe
TTITLE7=Like The Air
TTITLE8=Broken
TTITLE9=Never
TTITLE10=In Control (Demo Version)
TTITLE11=No More (Demo Version)
TTITLE12=Like The Air (Demo Version)
EXTD=
EXTT0=
EXTT1=
EXTT2=
EXTT3=
EXTT4=
EXTT5=
EXTT6=
EXTT7=
EXTT8=
EXTT9=
EXTT10=
EXTT11=
EXTT12=
PLAYORDER=
